<svg width="192" height="91" viewBox="0 0 192 91" fill="none" xmlns="http://www.w3.org/2000/svg">
<path d="M92.5573 5.7143L90.3548 0.848877H59.1463L33.4247 37.2771L39.9681 51.7968H60.0458L92.5573 5.7143Z" fill="#0078C9"/>
<path d="M140.013 11.1931L147.253 0.848877H103.144L77.5396 37.2741L84.2103 51.7968H104.144L127.892 17.9516L130.813 24.3502L121.082 38.0292L127.412 51.7968H158.575L140.013 11.1931Z" fill="#0078C9"/>
<path d="M0 65.2576H6.00304L14.9848 81.0831L23.9666 65.2576H29.9693V90.1513H24.7227V72.5481L16.9411 86.7373H12.8506L5.06898 72.5481V90.1513H0V65.2576Z" fill="white"/>
<path d="M54.6032 84.0703H43.0868L40.7302 90.1513H35.1274L45.221 65.2576H52.6912L62.7847 90.1513H56.9598L54.6032 84.0703ZM53.0915 80.158L48.8229 69.0982L44.5543 80.158H53.0915Z" fill="white"/>
<path d="M67.4088 85.1725V70.2363C67.4088 66.8581 69.4097 65.2576 73.6336 65.2576H83.9941C88.2181 65.2576 90.219 66.8581 90.219 70.2363V73.1878H84.8836V70.485C84.8836 69.525 84.4387 69.1694 83.1939 69.1694H74.4343C73.1891 69.1694 72.7446 69.525 72.7446 70.485V84.9238C72.7446 85.8837 73.1891 86.2393 74.4343 86.2393H83.1939C84.4387 86.2393 84.8836 85.8837 84.8836 84.9238V80.4782H78.258V76.7086H90.2191V85.1725C90.2191 88.5507 88.2182 90.1512 83.9942 90.1512H73.6337C69.4097 90.1512 67.4088 88.5508 67.4088 85.1725Z" fill="white"/>
<path d="M98.1787 65.2576H103.781L117.121 82.9677V65.2576H122.279V90.1513H117.032L103.337 71.9433V90.1513H98.1788L98.1787 65.2576Z" fill="white"/>
<path d="M130.727 85.1725V65.2576H136.063V84.9238C136.063 85.8838 136.508 86.2394 137.752 86.2394H146.557C147.757 86.2394 148.202 85.8838 148.202 84.9238V65.2576H153.537V85.1725C153.537 88.5508 151.537 90.1513 147.313 90.1513H136.952C132.728 90.1513 130.727 88.5508 130.727 85.1725Z" fill="white"/>
<path d="M162.031 65.2576H168.034L177.016 81.0831L185.997 65.2576H192V90.1513H186.753V72.5481L178.972 86.7373H174.881L167.1 72.5481V90.1513H162.031L162.031 65.2576Z" fill="white"/>
</svg>
