<svg width="331" height="58" viewBox="0 0 331 58" fill="none" xmlns="http://www.w3.org/2000/svg">
<g clip-path="url(#clip0_5_288)">
<path d="M46.2325 12.8719L44.5105 9.06421H20.1104L0 37.5728L5.11598 48.9358H20.8136L46.2325 12.8719Z" fill="#0078C9"/>
<path d="M83.3356 17.1595L88.9964 9.06421H54.5102L34.4911 37.5705L39.7065 48.9358H55.2916L73.8591 22.4488L76.1423 27.4562L68.5344 38.1614L73.4838 48.9358H97.8484L83.3356 17.1595Z" fill="#0078C9"/>
<path d="M134.984 16.3401H141.083L150.211 32.4364L159.339 16.3401H165.44V41.6598H160.107V23.755L152.2 38.1874H148.043L140.135 23.755V41.6598H134.984L134.984 16.3401Z" fill="white"/>
<path d="M191.375 35.4748H179.672L177.278 41.6598H171.585L181.842 16.3401H189.433L199.69 41.6598H193.771L191.375 35.4748ZM189.84 31.4959L185.502 20.2471L181.164 31.4959H189.84Z" fill="white"/>
<path d="M204.388 36.5959V21.4038C204.388 17.9677 206.423 16.3401 210.714 16.3401H221.244C225.536 16.3401 227.57 17.9678 227.57 21.4038V24.4067H222.147V21.6571C222.147 20.6811 221.695 20.319 220.429 20.319H211.527C210.263 20.319 209.811 20.6811 209.811 21.6571V36.3428C209.811 37.3196 210.263 37.6809 211.527 37.6809H220.429C221.695 37.6809 222.147 37.3194 222.147 36.3428V31.8218H215.414V27.9873H227.57V36.5961C227.57 40.0322 225.536 41.6598 221.244 41.6598H210.715C206.423 41.6598 204.388 40.032 204.388 36.5959Z" fill="white"/>
<path d="M235.658 16.3401H241.351L254.907 34.3536V16.3401H260.149V41.6598H254.817L240.899 23.1404V41.6598H235.658V16.3401Z" fill="white"/>
<path d="M268.734 36.5959V16.3401H274.157V36.3428C274.157 37.3196 274.609 37.6809 275.874 37.6809H284.821C286.04 37.6809 286.493 37.3194 286.493 36.3428V16.3401H291.915V36.5959C291.915 40.0321 289.882 41.6597 285.588 41.6597H275.061C270.767 41.6597 268.734 40.032 268.734 36.5959Z" fill="white"/>
<path d="M300.545 16.3401H306.644L315.772 32.4364L324.9 16.3401H331V41.6598H325.668V23.755L317.76 38.1874H313.603L305.696 23.755V41.6598H300.545L300.545 16.3401Z" fill="white"/>
<path d="M115.033 0H113.605V58H115.033V0Z" fill="#D0D2D3"/>
</g>
<defs>
<clipPath id="clip0_5_288">
<rect width="331" height="58" fill="white"/>
</clipPath>
</defs>
</svg>
