<svg width="324" height="78" viewBox="0 0 324 78" fill="none" xmlns="http://www.w3.org/2000/svg">
<g clip-path="url(#clip0_130_3329)">
<path d="M13.9701 11.6207H0V4.66016H36.2986V11.6207H22.3876V49.381H13.9701V11.6207Z" fill="black"/>
<path d="M64.4455 38.4771H46.2519L42.5305 49.4108H33.6699L49.6484 4.66016H61.4329L77.3819 49.381H68.1964L64.475 38.4472L64.4455 38.4771ZM62.0532 31.4269L55.3191 11.561L48.5851 31.4269H62.0532Z" fill="black"/>
<path d="M121.389 49.4108H112.263L103.196 32.7413H93.2129V49.4108H84.7954V4.66016H110.018C116.693 4.66016 119.854 7.52802 119.854 13.5924V23.5702C119.854 28.9474 117.402 31.8153 112.204 32.3829L121.389 49.381V49.4108ZM108.807 25.8704C110.698 25.8704 111.407 25.2431 111.407 23.4507V13.9807C111.407 12.2481 110.698 11.6207 108.807 11.6207H93.2129V25.8704H108.807Z" fill="black"/>
<path d="M129.305 40.4487V13.5924C129.305 7.52802 132.465 4.66016 139.14 4.66016H155.502C162.177 4.66016 165.338 7.52802 165.338 13.5924V18.9099H156.92V14.0405C156.92 12.3078 156.211 11.6805 154.262 11.6805H140.439C138.461 11.6805 137.781 12.3078 137.781 14.0405V40.0006C137.781 41.7333 138.49 42.3607 140.439 42.3607H154.262C156.241 42.3607 156.92 41.7333 156.92 40.0006V32.0244H146.465V25.2431H165.338V40.4487C165.338 46.5131 162.177 49.4108 155.502 49.4108H139.14C132.465 49.4108 129.305 46.543 129.305 40.4487Z" fill="black"/>
<path d="M175.793 4.66016H208.163V11.6805H184.21V23.0623H203.94V29.9631H184.21V42.3607H208.163V49.381H175.793V4.66016Z" fill="black"/>
<path d="M227.598 11.6207H213.627V4.66016H249.926V11.6207H236.015V49.381H227.598V11.6207Z" fill="black"/>
<path d="M1.71289 74.9824V73.2199H4.51872V74.8928C4.51872 75.4903 4.75501 75.6994 5.40478 75.6994H9.89411C10.5439 75.6994 10.7802 75.4903 10.7802 74.8928V73.0705C10.7802 72.3834 10.4848 72.1743 9.68737 72.0249L5.19803 71.1287C3.18965 70.7105 1.77196 70.0832 1.77196 68.0219V65.9606C1.77196 63.8993 2.83522 62.9434 5.07989 62.9434H10.0418C12.2865 62.9434 13.3497 63.9292 13.3497 65.9606V67.5738H10.5734V66.0502C10.5734 65.4527 10.3371 65.2436 9.65783 65.2436H5.49338C4.84361 65.2436 4.60733 65.4527 4.60733 66.0502V67.6335C4.60733 68.3206 4.90268 68.5297 5.72966 68.709L10.219 69.6052C12.2274 70.0234 13.6451 70.6508 13.6451 72.712V75.0123C13.6451 77.0736 12.5818 78.0295 10.3371 78.0295H5.07989C2.83522 78.0295 1.77196 77.0736 1.77196 75.0123L1.71289 74.9824Z" fill="black"/>
<path d="M25.6957 74.3253H19.5524L18.2824 78.0296H15.2993L20.6747 62.9136H24.6619L30.0373 78.0296H26.9361L25.6661 74.3253H25.6957ZM24.8687 71.9354L22.5945 65.2138L20.3203 71.9354H24.8687Z" fill="black"/>
<path d="M32.5771 62.8838H43.5051V65.2737H35.4125V69.2469H42.0875V71.6069H35.4125V78.0297H32.5771V62.9137V62.8838Z" fill="black"/>
<path d="M46.311 62.8838H57.239V65.2737H49.1464V69.1274H55.8213V71.4575H49.1464V75.6398H57.239V78.0297H46.311V62.9137V62.8838Z" fill="black"/>
<path d="M63.8252 65.2438H59.0996V62.8838H71.3567V65.2438H66.6606V77.9998H63.8252V65.2438Z" fill="black"/>
<path d="M77.8546 72.772L72.2725 62.8838H75.3441L79.2723 70.0833L83.2004 62.8838H86.2426L80.6604 72.772V77.9998H77.8251V72.772H77.8546Z" fill="black"/>
<path d="M93.8037 62.8838H96.7868L103.905 73.6383V62.8838H106.651V77.9998H103.846L96.5505 66.9466V77.9998H93.8037V62.8838Z" fill="black"/>
<path d="M110.668 62.8838H121.596V65.2737H113.503V69.1274H120.178V71.4575H113.503V75.6398H121.596V78.0297H110.668V62.9137V62.8838Z" fill="black"/>
<path d="M123.338 62.8838H126.44L130.338 75.132L134.266 62.8838H137.279L131.933 77.9998H128.625L123.279 62.8838H123.338Z" fill="black"/>
<path d="M139.878 62.8838H150.806V65.2737H142.714V69.1274H149.389V71.4575H142.714V75.6398H150.806V78.0297H139.878V62.9137V62.8838Z" fill="black"/>
<path d="M166.401 77.9998H163.329L160.258 72.3537H156.891V77.9998H154.055V62.8838H162.561C164.806 62.8838 165.869 63.8696 165.869 65.901V69.2767C165.869 71.099 165.042 72.055 163.27 72.2641L166.371 77.9998H166.401ZM162.148 70.0535C162.798 70.0535 163.034 69.8443 163.034 69.217V66.0205C163.034 65.423 162.798 65.2139 162.148 65.2139H156.891V70.0236H162.148V70.0535Z" fill="black"/>
<path d="M175.202 62.8838H178.038V69.0676H184.772V62.8838H187.607V77.9998H184.772V71.4575H178.038V77.9998H175.202V62.8838Z" fill="black"/>
<path d="M191.446 74.9826V62.8838H194.282V74.8332C194.282 75.4307 194.518 75.6398 195.197 75.6398H199.893C200.543 75.6398 200.779 75.4307 200.779 74.8332V62.8838H203.615V74.9826C203.615 77.0439 202.551 77.9998 200.307 77.9998H194.784C192.539 77.9998 191.476 77.0439 191.476 74.9826H191.446Z" fill="black"/>
<path d="M219.8 77.9998H216.729L213.657 72.3537H210.29V77.9998H207.455V62.8838H215.961C218.205 62.8838 219.269 63.8696 219.269 65.901V69.2767C219.269 71.099 218.442 72.055 216.67 72.2641L219.771 77.9998H219.8ZM215.547 70.0535C216.197 70.0535 216.433 69.8443 216.433 69.217V66.0205C216.433 65.423 216.197 65.2139 215.547 65.2139H210.29V70.0236H215.547V70.0535Z" fill="black"/>
<path d="M226.032 65.2438H221.307V62.8838H233.564V65.2438H228.868V77.9998H226.032V65.2438Z" fill="black"/>
<path d="M235.424 74.9824V73.2199H238.23V74.8928C238.23 75.4903 238.466 75.6994 239.116 75.6994H243.606C244.255 75.6994 244.492 75.4903 244.492 74.8928V73.0705C244.492 72.3834 244.196 72.1743 243.399 72.0249L238.909 71.1287C236.901 70.7105 235.483 70.0832 235.483 68.0219V65.9606C235.483 63.8993 236.547 62.9434 238.791 62.9434H243.753C245.998 62.9434 247.061 63.9292 247.061 65.9606V67.5738H244.285V66.0502C244.285 65.4527 244.049 65.2436 243.369 65.2436H239.205C238.555 65.2436 238.319 65.4527 238.319 66.0502V67.6335C238.319 68.3206 238.614 68.5297 239.441 68.709L243.93 69.6052C245.939 70.0234 247.356 70.6508 247.356 72.712V75.0123C247.356 77.0736 246.293 78.0295 244.049 78.0295H238.791C236.547 78.0295 235.483 77.0736 235.483 75.0123L235.424 74.9824Z" fill="black"/>
<path d="M260.884 61.2708V15.3252C260.884 4.92915 266.288 0 277.719 0H307.165C318.595 0 324 4.92915 324 15.3252V61.3006C324 71.6967 318.595 76.6258 307.165 76.6258H277.719C266.288 76.6258 260.884 71.6967 260.884 61.3006V61.2708ZM305.127 64.5569C308.376 64.5569 309.587 63.4515 309.587 60.4941V16.1019C309.587 13.1444 308.376 12.0391 305.127 12.0391H279.875C276.508 12.0391 275.297 13.1444 275.297 16.1019V60.5239C275.297 63.4814 276.508 64.5867 279.875 64.5867H305.127V64.5569Z" fill="black"/>
<path d="M302.794 37.1626H293.815V28.0811H291.186V37.1626H282.208V39.8513H291.186V48.903H293.815V39.8513H302.794V37.1626Z" fill="black"/>
</g>
<defs>
<clipPath id="clip0_130_3329">
<rect width="324" height="78" fill="white"/>
</clipPath>
</defs>
</svg>
